<svg xmlns="http://www.w3.org/2000/svg" fill="none" viewBox="0 0 400 200"><path fill="#1a2a5e" d="M0 0h400v200H0z"/><g fill="#0f0f1a"><circle cx="57" cy="35" r="18"/><circle cx="114" cy="35" r="18"/><circle cx="171" cy="35" r="18"/><circle cx="228" cy="35" r="18"/><circle cx="285" cy="35" r="18"/><circle cx="342" cy="35" r="18"/><circle cx="57" cy="80" r="18"/><circle cx="114" cy="80" r="18"/><circle cx="171" cy="80" r="18"/><circle cx="228" cy="80" r="18"/><circle cx="285" cy="80" r="18"/><circle cx="342" cy="80" r="18"/><circle cx="57" cy="125" r="18"/><circle cx="114" cy="125" r="18"/><circle cx="171" cy="125" r="18"/><circle cx="228" cy="125" r="18"/><circle cx="285" cy="125" r="18"/><circle cx="342" cy="125" r="18"/><circle cx="57" cy="170" r="18"/><circle cx="114" cy="170" r="18"/><circle cx="171" cy="170" r="18"/><circle cx="228" cy="170" r="18"/><circle cx="285" cy="170" r="18"/><circle cx="342" cy="170" r="18"/></g><circle cx="57" cy="170" r="18" fill="#e94560"/><circle cx="114" cy="170" r="18" fill="#e94560"/><circle cx="114" cy="125" r="18" fill="#e94560"/><circle cx="171" cy="170" r="18" fill="#e94560"/><circle cx="171" cy="125" r="18" fill="#e94560"/><circle cx="171" cy="80" r="18" fill="#e94560"/><circle cx="228" cy="170" r="18" fill="#f5c518"/><circle cx="228" cy="125" r="18" fill="#f5c518"/><circle cx="228" cy="80" r="18" fill="#f5c518"/><circle cx="285" cy="170" r="18" fill="#f5c518"/><circle cx="285" cy="125" r="18" fill="#f5c518"/><circle cx="342" cy="35" r="18" fill="#ffe033"/><circle cx="342" cy="35" r="22" stroke="#ffe033" stroke-width="3" opacity=".6"/><circle cx="342" cy="80" r="18" fill="#ffe033"/><circle cx="342" cy="80" r="22" stroke="#ffe033" stroke-width="3" opacity=".6"/><circle cx="342" cy="125" r="18" fill="#ffe033"/><circle cx="342" cy="125" r="22" stroke="#ffe033" stroke-width="3" opacity=".6"/><circle cx="342" cy="170" r="18" fill="#ffe033"/><circle cx="342" cy="170" r="22" stroke="#ffe033" stroke-width="3" opacity=".6"/></svg>