<svg xmlns="http://www.w3.org/2000/svg" viewBox="0 0 100 100"><path fill="#111827" d="M0 0h100v100H0z"/><rect width="60" height="40" x="20" y="30" fill="#fefce8" rx="4" transform="rotate(45 50 50)"/><path stroke="#cbd5e1" stroke-width="2" d="M64.142 35.858 35.858 64.142"/><circle cx="30" cy="42" r="3" fill="#111827" transform="rotate(45 50 50)"/><circle cx="40" cy="42" r="3" fill="#111827" transform="rotate(45 50 50)"/><circle cx="35" cy="50" r="3" fill="#111827" transform="rotate(45 50 50)"/><circle cx="30" cy="58" r="3" fill="#111827" transform="rotate(45 50 50)"/><circle cx="40" cy="58" r="3" fill="#111827" transform="rotate(45 50 50)"/><circle cx="62" cy="42" r="3" fill="#111827" transform="rotate(45 50 50)"/><circle cx="65" cy="50" r="3" fill="#111827" transform="rotate(45 50 50)"/><circle cx="68" cy="58" r="3" fill="#111827" transform="rotate(45 50 50)"/></svg>