<svg xmlns="http://www.w3.org/2000/svg" viewBox="0 0 200 200"><defs><linearGradient id="sky" x1="0" x2="0" y1="0" y2="1"><stop offset="0%" stop-color="#0a1628"/><stop offset="100%" stop-color="#1a3a5e"/></linearGradient><linearGradient id="pipe" x1="0" x2="1" y1="0" y2="0"><stop offset="0%" stop-color="#1a5c1a"/><stop offset="40%" stop-color="#3db87a"/><stop offset="100%" stop-color="#1a5c1a"/></linearGradient></defs><path fill="url(#sky)" d="M0 0h200v200H0z"/><circle cx="20" cy="20" r="1.2" fill="#fff" opacity=".7"/><circle cx="55" cy="12" r=".8" fill="#fff" opacity=".5"/><circle cx="90" cy="30" r="1" fill="#fff" opacity=".6"/><circle cx="140" cy="18" r="1.3" fill="#fff" opacity=".8"/><circle cx="170" cy="35" r=".9" fill="#fff" opacity=".55"/><circle cx="30" cy="50" r=".7" fill="#fff" opacity=".4"/><circle cx="160" cy="55" r="1.1" fill="#fff" opacity=".65"/><circle cx="28" cy="72" r="13" fill="#fff" opacity=".07"/><circle cx="44" cy="65" r="17" fill="#fff" opacity=".07"/><circle cx="62" cy="72" r="13" fill="#fff" opacity=".07"/><circle cx="128" cy="55" r="10" fill="#fff" opacity=".06"/><circle cx="144" cy="48" r="14" fill="#fff" opacity=".06"/><circle cx="160" cy="55" r="10" fill="#fff" opacity=".06"/><path fill="url(#pipe)" d="M130 0h40v80h-40z"/><rect width="52" height="26" x="124" y="54" fill="url(#pipe)" rx="6"/><path fill="#fff" d="M137 0h8v80h-8z" opacity=".08"/><path fill="url(#pipe)" d="M130 126h40v74h-40z"/><rect width="52" height="26" x="124" y="126" fill="url(#pipe)" rx="6"/><path fill="#fff" d="M137 126h8v74h-8z" opacity=".08"/><path fill="#3d2510" d="M0 172h200v28H0z"/><path fill="#4da830" d="M0 172h200v12H0z"/><ellipse cx="68" cy="103" fill="#f5c518" rx="18" ry="14"/><ellipse cx="70" cy="107" fill="#ffe066" rx="11" ry="9"/><ellipse cx="65" cy="110" fill="#d4a800" rx="10" ry="6" transform="rotate(15 65 110)"/><circle cx="78" cy="98" r="6" fill="#fff"/><circle cx="80" cy="98" r="3.2" fill="#111"/><circle cx="81.5" cy="96.5" r="1.3" fill="#fff"/><path fill="#e8823a" d="m84 100 10 3-10 1z"/><path fill="#c06428" d="m84 104 10-1-10 4z"/><text x="100" y="26" fill="#fff" font-family="'Courier New', monospace" font-size="22" font-weight="bold" opacity=".9" text-anchor="middle">3</text></svg>