<svg xmlns="http://www.w3.org/2000/svg" viewBox="0 0 512 512"><defs><linearGradient id="glowGrad" x1="0%" x2="100%" y1="0%" y2="100%"><stop offset="0%" stop-color="#ffe600"/><stop offset="50%" stop-color="#ffb700"/><stop offset="100%" stop-color="#f80"/></linearGradient><linearGradient id="darkTileGrad" x1="0%" x2="100%" y1="0%" y2="100%"><stop offset="0%" stop-color="#2a2a4a"/><stop offset="100%" stop-color="#15152b"/></linearGradient><filter id="neonGlow" width="200%" height="200%" x="-50%" y="-50%"><feGaussianBlur result="blur1" stdDeviation="12"/><feGaussianBlur result="blur2" stdDeviation="25"/><feMerge><feMergeNode in="blur2"/><feMergeNode in="blur1"/><feMergeNode in="SourceGraphic"/></feMerge></filter><filter id="shadow" width="140%" height="140%" x="-20%" y="-20%"><feDropShadow dx="0" dy="8" flood-color="#000" flood-opacity=".6" stdDeviation="6"/></filter><radialGradient id="bgGrad" cx="50%" cy="50%" r="70%"><stop offset="0%" stop-color="#1e1e38"/><stop offset="100%" stop-color="#0a0a14"/></radialGradient></defs><rect width="512" height="512" fill="url(#bgGrad)" stroke="#2e2e5a" stroke-width="6" rx="96"/><g filter="url(#shadow)" transform="translate(64 64)"><rect width="100" height="100" x="16" y="16" fill="url(#darkTileGrad)" stroke="#3f3f6e" stroke-width="3" rx="20"/><rect width="100" height="100" x="142" y="16" fill="url(#glowGrad)" filter="url(#neonGlow)" rx="20"/><rect width="100" height="100" x="142" y="16" fill="none" stroke="#fff" stroke-width="2" opacity=".8" rx="20"/><rect width="100" height="100" x="268" y="16" fill="url(#darkTileGrad)" stroke="#3f3f6e" stroke-width="3" rx="20"/><rect width="100" height="100" x="16" y="142" fill="url(#glowGrad)" filter="url(#neonGlow)" rx="20"/><rect width="100" height="100" x="16" y="142" fill="none" stroke="#fff" stroke-width="2" opacity=".8" rx="20"/><rect width="100" height="100" x="142" y="142" fill="url(#darkTileGrad)" stroke="#3f3f6e" stroke-width="3" rx="20"/><path stroke="#ffb700" stroke-linecap="round" stroke-width="6" d="M192 167v50m-25-25h50" opacity=".4"/><rect width="100" height="100" x="268" y="142" fill="url(#glowGrad)" filter="url(#neonGlow)" rx="20"/><rect width="100" height="100" x="268" y="142" fill="none" stroke="#fff" stroke-width="2" opacity=".8" rx="20"/><rect width="100" height="100" x="16" y="268" fill="url(#darkTileGrad)" stroke="#3f3f6e" stroke-width="3" rx="20"/><rect width="100" height="100" x="142" y="268" fill="url(#glowGrad)" filter="url(#neonGlow)" rx="20"/><rect width="100" height="100" x="142" y="268" fill="none" stroke="#fff" stroke-width="2" opacity=".8" rx="20"/><rect width="100" height="100" x="268" y="268" fill="url(#darkTileGrad)" stroke="#3f3f6e" stroke-width="3" rx="20"/></g><path fill="none" stroke="#ffb700" stroke-width="3" d="M120 440q136 20 272 0" filter="url(#neonGlow)" opacity=".2"/></svg>