<svg xmlns="http://www.w3.org/2000/svg" viewBox="0 0 500 500"><defs><linearGradient id="bgGrad" x1="0%" x2="100%" y1="0%" y2="100%"><stop offset="0%" stop-color="#1b1e2b"/><stop offset="100%" stop-color="#141724"/></linearGradient><filter id="shadow" width="110%" height="110%" x="-5%" y="-5%"><feDropShadow dx="0" dy="5" flood-color="#000" flood-opacity=".3" stdDeviation="6"/></filter></defs><rect width="100%" height="100%" fill="url(#bgGrad)"/><g transform="translate(250 40)"><circle cx="-70" r="8" fill="#ff4757"/><text x="-50" y="5" fill="#a8e6cf" font-family="Arial, sans-serif" font-size="16" font-weight="bold">1 Jugador</text><text x="-50" y="22" fill="#57606f" font-family="Arial, sans-serif" font-size="12">1 Jugador</text></g><g filter="url(#shadow)" transform="translate(50 80)"><path fill="#4dc59f" d="M0 0h40v40H0zm40 0h40v40H40zm40 0h40v40H80zm40 0h40v40h-40zm40 0h40v40h-40zm40 0h40v40h-40zm40 0h40v40h-40zm40 0h40v40h-40zm40 0h40v40h-40zm40 0h40v40h-40zM0 40h40v40H0zm40 0h40v40H40zm40 0h40v40H80zm40 0h40v40h-40zm40 0h40v40h-40zm40 0h40v40h-40z"/><path fill="#1d212f" d="M240 40h40v40h-40zm40 0h40v40h-40zm40 0h40v40h-40z"/><path fill="#4dc59f" d="M360 40h40v40h-40zM0 80h40v40H0zm40 0h40v40H40zm40 0h40v40H80zm40 0h40v40h-40zm40 0h40v40h-40zm40 0h40v40h-40z"/><path fill="#1d212f" d="M240 80h40v40h-40zm40 0h40v40h-40zm40 0h40v40h-40z"/><path fill="#4dc59f" d="M360 80h40v40h-40zM0 120h40v40H0zm40 0h40v40H40zm40 0h40v40H80zm40 0h40v40h-40zm40 0h40v40h-40z"/><path fill="#1d212f" d="M200 120h40v40h-40zm40 0h40v40h-40zm40 0h40v40h-40zm40 0h40v40h-40zm40 0h40v40h-40z"/><path fill="#4dc59f" d="M0 160h40v40H0zm40 0h40v40H40zm40 0h40v40H80zm40 0h40v40h-40zm40 0h40v40h-40z"/><path fill="#1d212f" d="M200 160h40v40h-40zm40 0h40v40h-40zm40 0h40v40h-40zm40 0h40v40h-40zm40 0h40v40h-40z"/><path fill="#4dc59f" d="M0 200h40v40H0zm40 0h40v40H40zm40 0h40v40H80zm40 0h40v40h-40z"/><path fill="#1d212f" d="M160 200h40v40h-40zm40 0h40v40h-40zm40 0h40v40h-40zm40 0h40v40h-40zm40 0h40v40h-40zm40 0h40v40h-40z"/><path fill="#4dc59f" d="M0 240h40v40H0zm40 0h40v40H40zm40 0h40v40H80z"/><path fill="#1d212f" d="M120 240h40v40h-40zm40 0h40v40h-40zm40 0h40v40h-40zm40 0h40v40h-40zm40 0h40v40h-40zm40 0h40v40h-40zm40 0h40v40h-40z"/><path fill="#4dc59f" d="M0 280h40v40H0zm40 0h40v40H40zm40 0h40v40H80zm40 0h40v40h-40z"/><path fill="#1d212f" d="M160 280h40v40h-40zm40 0h40v40h-40zm40 0h40v40h-40zm40 0h40v40h-40zm40 0h40v40h-40zm40 0h40v40h-40z"/><path fill="#4dc59f" d="M0 320h40v40H0zm40 0h40v40H40zm40 0h40v40H80zm40 0h40v40h-40z"/><path fill="#1d212f" d="M160 320h40v40h-40zm40 0h40v40h-40zm40 0h40v40h-40zm40 0h40v40h-40zm40 0h40v40h-40zm40 0h40v40h-40z"/><path fill="#4dc59f" d="M0 360h40v40H0zm40 0h40v40H40zm40 0h40v40H80zm40 0h40v40h-40zm40 0h40v40h-40zm40 0h40v40h-40zm40 0h40v40h-40zm40 0h40v40h-40zm40 0h40v40h-40zm40 0h40v40h-40z"/><path stroke="#2d3448" stroke-width="2" d="M0 40h400M0 80h400M0 120h400M0 160h400M0 200h400M0 240h400M0 280h400M0 320h400M0 360h400M40 0v400M80 0v400M120 0v400M160 0v400M200 0v400M240 0v400M280 0v400M320 0v400M360 0v400"/><g dominant-baseline="central" font-family="Arial, sans-serif" font-size="18" font-weight="bold" text-anchor="middle"><text x="260" y="60" fill="#6c7bd8">2</text><text x="300" y="60" fill="#4dc59f">1</text><text x="340" y="60" fill="#f9a26c">3</text><text x="260" y="100" fill="#4dc59f">1</text><text x="340" y="100" fill="#4dc59f">1</text><text x="380" y="100" fill="#4dc59f">1</text><text x="220" y="140" fill="#f9a26c">3</text><text x="260" y="140" fill="#6c7bd8">2</text><text x="300" y="140" fill="#4dc59f">1</text><text x="220" y="180" fill="#4dc59f">1</text><text x="180" y="220" fill="#4dc59f">1</text><text x="180" y="260" fill="#6c7bd8">2</text><text x="220" y="260" fill="#4dc59f">1</text><text x="220" y="300" fill="#4dc59f">1</text><text x="340" y="300" fill="#4dc59f">1</text><text x="380" y="300" fill="#4dc59f">1</text><text x="220" y="340" fill="#6c7bd8">2</text><text x="260" y="340" fill="#4dc59f">1</text><text x="300" y="340" fill="#4dc59f">1</text><text x="340" y="340" fill="#4dc59f">1</text></g><g transform="translate(100 100)"><rect width="2" height="18" x="-1" y="-16" fill="#ddd" rx="1"/><path fill="#ff4757" d="M1-16v10l11-5Z"/></g><g transform="translate(60 220)"><rect width="2" height="18" x="-1" y="-16" fill="#ddd" rx="1"/><path fill="#ff4757" d="M1-16v10l11-5Z"/></g><g transform="translate(60 300)"><rect width="2" height="18" x="-1" y="-16" fill="#ddd" rx="1"/><path fill="#ff4757" d="M1-16v10l11-5Z"/></g></g></svg>