<svg xmlns="http://www.w3.org/2000/svg" viewBox="0 0 400 200"><path fill="#050510" d="M0 0h400v200H0z"/><g fill="#fff" opacity=".8"><circle cx="30" cy="15" r="1"/><circle cx="80" cy="28" r="1.2"/><circle cx="150" cy="10" r="1.5"/><circle cx="220" cy="18" r="1"/><circle cx="330" cy="22" r="1.5"/><circle cx="370" cy="12" r="1"/><circle cx="60" cy="185" r="1.2"/><circle cx="340" cy="190" r="1"/></g><text x="8" y="14" fill="#d0d0d0" font-family="monospace" font-size="10">PUNTOS: 0</text><text x="305" y="14" fill="#00e5ff" font-family="monospace" font-size="10">NIVEL 1</text><g transform="translate(200 24)"><ellipse fill="#ff4dff" rx="22" ry="6"/><ellipse cy="-3" fill="#d84fff" rx="13" ry="4"/><text x="-3" y="2" fill="#fff" font-size="8">?</text></g><path fill="#ff5aa5" d="M40 42h8v8h-8zm35 0h8v8h-8zm35 0h8v8h-8zm35 0h8v8h-8zm35 0h8v8h-8zm35 0h8v8h-8zm35 0h8v8h-8zm35 0h8v8h-8zm35 0h8v8h-8zm35 0h8v8h-8z"/><path fill="#ffb08f" d="M50 60h10v10H50zm40 0h10v10H90zm40 0h10v10h-10zm40 0h10v10h-10zm40 0h10v10h-10zm40 0h10v10h-10zm40 0h10v10h-10zm40 0h10v10h-10z"/><path fill="#72ff9d" d="M40 80h12v8H40zm40 0h12v8H80zm40 0h12v8h-12zm40 0h12v8h-12zm40 0h12v8h-12zm40 0h12v8h-12zm40 0h12v8h-12zm40 0h12v8h-12zm40 0h12v8h-12zM40 98h12v8H40zm40 0h12v8H80zm40 0h12v8h-12zm40 0h12v8h-12zm40 0h12v8h-12zm40 0h12v8h-12zm40 0h12v8h-12zm40 0h12v8h-12zm40 0h12v8h-12z"/><circle cx="200" cy="120" r="4" fill="#f36"/><g fill="#18d7ff"><rect width="55" height="22" x="35" y="140" rx="2"/><rect width="55" height="22" x="125" y="140" rx="2"/><rect width="55" height="22" x="220" y="140" rx="2"/><rect width="55" height="22" x="310" y="140" rx="2"/></g><path fill="#18d7ff" d="M180 177h40v9h-40zm10-6h20v6h-20zM8 186h16v7H8zm22 0h16v7H30zm22 0h16v7H52z"/></svg>