<svg xmlns="http://www.w3.org/2000/svg" fill="none" viewBox="0 0 400 200"><path fill="#0f0f1a" d="M0 0h400v200H0z"/><path fill="#16213e" d="M110 10h180v180H110z"/><path fill="#1a1a2e" d="M170 10h60v60h-60zm-60 60h60v60h-60zm120 0h60v60h-60zm-60 60h60v60h-60z"/><path fill="#131a30" d="M110 90h180v20H110z"/><path fill="#131a30" d="M190 10h20v180h-20z"/><path fill="#0d3352" d="M190 90h20v20h-20z"/><path fill="#3d1422" d="M250 50h20v20h-20z"/><path stroke="#2a2a4a" d="M130 10v180m20-180v180m40-180v180m20-180v180m40-180v180m20-180v180M110 30h180M110 50h180M110 90h180m-180 20h180m-180 40h180m-180 20h180"/><path stroke="#4ecca3" stroke-width="2" d="M170 10v180m60-180v180M110 70h180m-180 60h180" opacity=".5"/><path stroke="#4ecca3" stroke-width="2" d="M110 10h180v180H110z"/><g font-family="'Courier New', monospace" font-size="14" font-weight="700" text-anchor="middle"><text x="120" y="20" fill="#e0e0f0" dy=".3em">5</text><text x="140" y="20" fill="#e0e0f0" dy=".3em">3</text><text x="200" y="20" fill="#e0e0f0" dy=".3em">7</text><text x="240" y="20" fill="#e0e0f0" dy=".3em">6</text><text x="280" y="20" fill="#e0e0f0" dy=".3em">1</text><text x="120" y="40" fill="#e0e0f0" dy=".3em">6</text><text x="180" y="40" fill="#e0e0f0" dy=".3em">1</text><text x="200" y="40" fill="#e0e0f0" dy=".3em">9</text><text x="220" y="40" fill="#e0e0f0" dy=".3em">5</text><text x="280" y="40" fill="#e0e0f0" dy=".3em">8</text><text x="180" y="60" fill="#e0e0f0" dy=".3em">9</text><text x="220" y="60" fill="#e0e0f0" dy=".3em">6</text><text x="260" y="60" fill="#ff6b8a" dy=".3em">3</text><text x="120" y="80" fill="#e0e0f0" dy=".3em">8</text><text x="240" y="80" fill="#e0e0f0" dy=".3em">6</text><text x="280" y="80" fill="#e0e0f0" dy=".3em">3</text><text x="140" y="100" fill="#e0e0f0" dy=".3em">4</text><text x="200" y="100" fill="#4ecca3" dy=".3em">7</text><text x="280" y="100" fill="#e0e0f0" dy=".3em">5</text><text x="120" y="120" fill="#e0e0f0" dy=".3em">9</text><text x="140" y="120" fill="#e0e0f0" dy=".3em">8</text><text x="240" y="120" fill="#e0e0f0" dy=".3em">2</text><text x="180" y="140" fill="#4ecca3" dy=".3em">6</text><text x="240" y="140" fill="#e0e0f0" dy=".3em">2</text><text x="260" y="140" fill="#e0e0f0" dy=".3em">8</text><text x="120" y="180" fill="#e0e0f0" dy=".3em">1</text><text x="200" y="180" fill="#4ecca3" dy=".3em">8</text><text x="260" y="180" fill="#e0e0f0" dy=".3em">4</text><text x="280" y="180" fill="#e0e0f0" dy=".3em">9</text></g></svg>