<svg xmlns="http://www.w3.org/2000/svg" width="1200" height="630" viewBox="0 0 1200 630"><defs><radialGradient id="glow" cx="50%" cy="40%" r="60%"><stop offset="0%" stop-color="#001a2e"/><stop offset="100%" stop-color="#000008"/></radialGradient><linearGradient id="titleGrad" x1="0" x2="1" y1="0" y2="0"><stop offset="0%" stop-color="#0ff"/><stop offset="100%" stop-color="#08f"/></linearGradient><filter id="neonStrong"><feDropShadow dx="0" dy="0" flood-color="#0ff" stdDeviation="12"/></filter></defs><path fill="url(#glow)" d="M0 0h1200v630H0z"/><g fill="#fff" opacity=".8"><circle cx="100" cy="80" r="1.5"/><circle cx="250" cy="150" r="1"/><circle cx="400" cy="60" r="2"/><circle cx="550" cy="200" r="1.2"/><circle cx="700" cy="90" r="1.8"/><circle cx="850" cy="180" r="1"/><circle cx="1000" cy="70" r="2.2"/><circle cx="1100" cy="140" r="1.3"/><circle cx="150" cy="400" r="1"/><circle cx="350" cy="500" r="1.6"/><circle cx="600" cy="450" r="1.2"/><circle cx="900" cy="520" r="1.8"/><circle cx="1050" cy="380" r="1"/><circle cx="80" cy="550" r="1.4"/><circle cx="500" cy="100" r="1"/><circle cx="750" cy="580" r="1.5"/><circle cx="1150" cy="550" r="1.2"/><circle cx="300" cy="300" r=".8"/></g><path fill="none" stroke="#889" stroke-width="2" d="m180 480 20-20 20 10 20 30-30 20-20-10zm770-80 30-20 30 10 10 30-30 20-30-10zM80 200l20-20 20 15-10 25-25-5z" opacity=".6"/><g filter="url(#neonStrong)" transform="translate(600 315)"><path fill="none" stroke="#0ff" stroke-width="2.5" d="m30 0-50-15 10 15-10 15z"/><path stroke="#08f" stroke-width="1.5" d="M-5-6h-10M-5 6h-10"/></g><path fill="none" stroke="#f80" stroke-width="1.5" d="m580 309-16 6 16 6z" opacity=".7"><animate attributeName="opacity" dur="0.3s" repeatCount="indefinite" values="0.7;0.3;0.7"/></path><path stroke="#0ff" stroke-width="2" d="M640 310h40m-40 10h40m-45-20h35" opacity=".8"/><text x="600" y="240" fill="url(#titleGrad)" filter="url(#neonStrong)" font-family="'Orbitron', 'Arial Black', monospace" font-size="90" font-weight="900" text-anchor="middle">VOID SECTOR</text><text x="600" y="400" fill="#4af" font-family="'Orbitron', monospace" font-size="22" letter-spacing="8" opacity=".8" text-anchor="middle">SPACE SHOOTER</text><g opacity=".5" transform="translate(600 480)"><rect width="240" height="30" x="-120" y="-15" fill="none" stroke="#0ff" rx="15"/><text y="5" fill="#0ff" font-family="'Orbitron', monospace" font-size="13" text-anchor="middle">1v1 · CO-OP · ONLINE</text></g></svg>