<svg xmlns="http://www.w3.org/2000/svg" viewBox="0 0 400 200"><path fill="#0d0d1a" d="M0 0h400v200H0z"/><text x="50%" y="38" fill="gold" font-family="Arial Black, sans-serif" font-size="28" font-weight="900" text-anchor="middle">
    PAC-MAN
  </text><text x="50%" y="52" fill="#8b949e" font-family="monospace" font-size="9" text-anchor="middle">
    CLASSIC ARCADE
  </text><g transform="translate(120 120)"><circle r="40" fill="#ffe100"/><path fill="#0d0d1a" d="m0 0 40-28v56z"/></g><circle cx="195" cy="120" r="3" fill="#ffd43b" opacity=".7"/><circle cx="210" cy="120" r="3" fill="#ffd43b" opacity=".7"/><circle cx="225" cy="120" r="3" fill="#ffd43b" opacity=".7"/><circle cx="240" cy="120" r="3" fill="#ffd43b" opacity=".7"/><circle cx="255" cy="120" r="3" fill="#ffd43b" opacity=".7"/><g transform="matrix(.6 0 0 .6 290 115)"><path fill="#f44" d="M-30 0q0-40 30-40T30 0v28l-10-8-10 8-10-8-10 8-10-8-10 8Z"/><circle cx="-10" cy="-12" r="8" fill="#fff"/><circle cx="10" cy="-12" r="8" fill="#fff"/><circle cx="-8" cy="-12" r="3.5" fill="#2f3542"/><circle cx="12" cy="-12" r="3.5" fill="#2f3542"/></g><rect width="100%" height="6" y="175" fill="#1a1a3e" rx="2"/><rect width="60%" height="6" x="20%" y="175" fill="gold" opacity=".8" rx="2"/></svg>