<svg xmlns="http://www.w3.org/2000/svg" fill="none" viewBox="0 0 400 200"><path fill="#0f1117" d="M0 0h400v200H0z"/><rect width="280" height="110" x="60" y="45" fill="#1a1d2e" stroke="#6c63ff" stroke-width="2" rx="12"/><rect width="32" height="32" x="75" y="60" fill="#252840" stroke="#2e3250" rx="6"/><rect width="32" height="32" x="115" y="60" fill="#252840" stroke="#2e3250" rx="6"/><rect width="32" height="32" x="155" y="60" fill="#3d3880" stroke="#6c63ff" rx="6"/><rect width="32" height="32" x="195" y="60" fill="#252840" stroke="#2e3250" rx="6"/><rect width="32" height="32" x="235" y="60" fill="#252840" stroke="#2e3250" rx="6"/><rect width="32" height="32" x="275" y="60" fill="#252840" stroke="#2e3250" rx="6"/><rect width="32" height="32" x="75" y="100" fill="#252840" stroke="#2e3250" rx="6"/><rect width="32" height="32" x="115" y="100" fill="#252840" stroke="#2e3250" rx="6"/><rect width="32" height="32" x="155" y="100" fill="#252840" stroke="#2e3250" rx="6"/><rect width="32" height="32" x="195" y="100" fill="#252840" stroke="#2e3250" rx="6"/><rect width="32" height="32" x="235" y="100" fill="#252840" stroke="#2e3250" rx="6"/><rect width="32" height="32" x="275" y="100" fill="#252840" stroke="#2e3250" rx="6"/><text x="211" y="82" fill="#4ade80" font-family="monospace" font-size="16" font-weight="700" text-anchor="middle">W</text><text x="251" y="82" fill="#6b7280" font-family="monospace" font-size="16" font-weight="700" text-anchor="middle">P</text><text x="291" y="82" fill="#6b7280" font-family="monospace" font-size="16" font-weight="700" text-anchor="middle">M</text><rect width="2" height="18" x="170" y="67" fill="#6c63ff" rx="1"><animate attributeName="opacity" dur="0.8s" repeatCount="indefinite" values="1;0;1"/></rect><text x="200" y="175" fill="#6c63ff" font-size="15" font-weight="bold" text-anchor="middle">Typing Speed</text></svg>